<svg width="24" height="23" viewBox="0 0 24 23" fill="none" xmlns="http://www.w3.org/2000/svg">
<path fill-rule="evenodd" clip-rule="evenodd" d="M12.6316 2.3574C13.0091 2.13899 13.2632 1.73076 13.2632 1.2632C13.2632 0.565552 12.6976 0 12 0C11.3024 0 10.7368 0.565552 10.7368 1.2632C10.7368 1.73076 10.9909 2.13899 11.3684 2.3574V3.78959H7.57895C3.39321 3.78959 0 7.1829 0 11.3688C0 15.5546 3.39321 18.9479 7.57895 18.9479H12.9474C15.1579 18.9479 13.5789 22.487 12.9474 22.8354C17.2336 21.7139 20.8367 18.9036 23.0032 15.1584H22.9861C23.6309 14.0436 24 12.7493 24 11.3688C24 7.1829 20.6068 3.78959 16.4211 3.78959H12.6316V2.3574ZM7.57895 5.05279C4.09083 5.05279 1.26316 7.88055 1.26316 11.3688C1.26316 14.857 4.09083 17.6847 7.57895 17.6847H16.4211C19.9092 17.6847 22.7368 14.857 22.7368 11.3688C22.7368 7.88055 19.9092 5.05279 16.4211 5.05279H7.57895ZM3.15789 11.3688C3.15789 8.92701 5.13727 6.94758 7.57895 6.94758H16.4211C18.8627 6.94758 20.8421 8.92701 20.8421 11.3688C20.8421 13.8105 18.8627 15.79 16.4211 15.79H7.57895C5.13727 15.79 3.15789 13.8105 3.15789 11.3688ZM9.47368 11.3688C9.47368 12.0664 8.90815 12.632 8.21053 12.632C7.5129 12.632 6.94737 12.0664 6.94737 11.3688C6.94737 10.6711 7.5129 10.1056 8.21053 10.1056C8.90815 10.1056 9.47368 10.6711 9.47368 11.3688ZM15.7895 12.632C16.4871 12.632 17.0526 12.0664 17.0526 11.3688C17.0526 10.6711 16.4871 10.1056 15.7895 10.1056C15.0919 10.1056 14.5263 10.6711 14.5263 11.3688C14.5263 12.0664 15.0919 12.632 15.7895 12.632Z" fill="#455168"/>
</svg>
