<svg width="12" height="24" viewBox="0 0 12 24" fill="none" xmlns="http://www.w3.org/2000/svg">
<path d="M6.00008 24.0003C4.34006 24.0003 2.92504 23.4153 1.75502 22.2453C0.585008 21.0753 0 19.6603 0 18.0003C0 17.0402 0.210003 16.1452 0.630009 15.3152C1.05001 14.4852 1.64002 13.7802 2.40003 13.2002V3.60005C2.40003 2.60004 2.75004 1.75002 3.45005 1.05001C4.15006 0.350005 5.00007 0 6.00008 0C7.0001 0 7.85011 0.350005 8.55012 1.05001C9.25013 1.75002 9.60014 2.60004 9.60014 3.60005V13.2002C10.3601 13.7802 10.9502 14.4852 11.3702 15.3152C11.7902 16.1452 12.0002 17.0402 12.0002 18.0003C12.0002 19.6603 11.4152 21.0753 10.2451 22.2453C9.07513 23.4153 7.66011 24.0003 6.00008 24.0003ZM4.80007 10.8002H7.2001V9.60014H6.00008V8.40012H7.2001V6.00008H6.00008V4.80007H7.2001V3.60005C7.2001 3.26005 7.0851 2.97504 6.8551 2.74504C6.62509 2.51504 6.34009 2.40003 6.00008 2.40003C5.66008 2.40003 5.37508 2.51504 5.14507 2.74504C4.91507 2.97504 4.80007 3.26005 4.80007 3.60005V10.8002Z" fill="black"/>
</svg>
