<svg width="55" height="55" viewBox="0 0 55 55" fill="none" xmlns="http://www.w3.org/2000/svg">
<rect width="55" height="55" rx="27.5" fill="#465269"/>
<path fill-rule="evenodd" clip-rule="evenodd" d="M28.1875 15.2076C28.7012 14.9104 29.0469 14.3549 29.0469 13.7188C29.0469 12.7695 28.2774 12 27.3281 12C26.3789 12 25.6094 12.7695 25.6094 13.7188C25.6094 14.3549 25.955 14.9104 26.4688 15.2076V17.1562H21.3125C15.6171 17.1562 11 21.7733 11 27.4688C11 33.1642 15.6171 37.7812 21.3125 37.7812H28.6172C31.625 37.7812 29.4766 42.5966 28.6172 43.0707C34.4493 41.5446 39.352 37.721 42.2999 32.625H42.2766C43.1541 31.1082 43.6562 29.3471 43.6562 27.4688C43.6562 21.7733 39.0392 17.1562 33.3438 17.1562H28.1875V15.2076ZM21.3125 18.875C16.5663 18.875 12.7188 22.7226 12.7188 27.4688C12.7188 32.2149 16.5663 36.0625 21.3125 36.0625H33.3438C38.0899 36.0625 41.9375 32.2149 41.9375 27.4688C41.9375 22.7226 38.0899 18.875 33.3438 18.875H21.3125ZM15.2969 27.4688C15.2969 24.1464 17.9902 21.4531 21.3125 21.4531H33.3438C36.6661 21.4531 39.3594 24.1464 39.3594 27.4688C39.3594 30.7911 36.6661 33.4844 33.3438 33.4844H21.3125C17.9902 33.4844 15.2969 30.7911 15.2969 27.4688ZM23.8906 27.4688C23.8906 28.418 23.1211 29.1875 22.1719 29.1875C21.2226 29.1875 20.4531 28.418 20.4531 27.4688C20.4531 26.5195 21.2226 25.75 22.1719 25.75C23.1211 25.75 23.8906 26.5195 23.8906 27.4688ZM32.4844 29.1875C33.4336 29.1875 34.2031 28.418 34.2031 27.4688C34.2031 26.5195 33.4336 25.75 32.4844 25.75C31.5351 25.75 30.7656 26.5195 30.7656 27.4688C30.7656 28.418 31.5351 29.1875 32.4844 29.1875Z" fill="white"/>
</svg>
