<svg width="16" height="16" viewBox="0 0 16 16" fill="none" xmlns="http://www.w3.org/2000/svg">
<path d="M10.0005 2.5C8.9791 2.50078 7.97801 2.78571 7.10924 3.32291C6.24047 3.86011 5.53827 4.62841 5.08117 5.54187C4.5374 5.46257 3.98311 5.49616 3.45289 5.64055C2.92267 5.78494 2.42789 6.03703 1.99941 6.38111C1.57093 6.72518 1.21794 7.15385 0.962465 7.64038C0.706987 8.12691 0.554498 8.66086 0.514511 9.20893C0.474523 9.75701 0.547895 10.3074 0.73005 10.8259C0.912204 11.3444 1.19923 11.8197 1.57324 12.2223C1.94724 12.625 2.40019 12.9462 2.90383 13.166C3.40748 13.3859 3.95102 13.4995 4.50055 13.5H10.0005C11.4592 13.5 12.8582 12.9205 13.8896 11.8891C14.9211 10.8576 15.5005 9.45869 15.5005 8C15.5005 6.54131 14.9211 5.14236 13.8896 4.11091C12.8582 3.07946 11.4592 2.5 10.0005 2.5ZM10.0005 12.5H4.50055C3.7049 12.5 2.94184 12.1839 2.37923 11.6213C1.81662 11.0587 1.50055 10.2956 1.50055 9.5C1.50055 8.70435 1.81662 7.94129 2.37923 7.37868C2.94184 6.81607 3.7049 6.5 4.50055 6.5C4.5693 6.5 4.63805 6.5 4.70617 6.50688C4.56944 6.99279 4.50024 7.49521 4.50055 8C4.50055 8.13261 4.55323 8.25979 4.64699 8.35355C4.74076 8.44732 4.86794 8.5 5.00055 8.5C5.13316 8.5 5.26033 8.44732 5.3541 8.35355C5.44787 8.25979 5.50055 8.13261 5.50055 8C5.50055 7.10998 5.76447 6.23995 6.25893 5.49993C6.7534 4.75991 7.4562 4.18314 8.27847 3.84254C9.10074 3.50195 10.0055 3.41283 10.8785 3.58647C11.7514 3.7601 12.5532 4.18868 13.1825 4.81802C13.8119 5.44736 14.2404 6.24918 14.4141 7.12209C14.5877 7.99501 14.4986 8.89981 14.158 9.72208C13.8174 10.5443 13.2406 11.2471 12.5006 11.7416C11.7606 12.2361 10.8906 12.5 10.0005 12.5Z" fill="black"/>
</svg>
