<svg width="30" height="30" viewBox="0 0 30 30" fill="none" xmlns="http://www.w3.org/2000/svg">
<path d="M15 23C14.45 23 13.9792 22.8042 13.5875 22.4125C13.1958 22.0208 13 21.55 13 21C13 20.45 13.1958 19.9792 13.5875 19.5875C13.9792 19.1958 14.45 19 15 19C15.55 19 16.0208 19.1958 16.4125 19.5875C16.8042 19.9792 17 20.45 17 21C17 21.55 16.8042 22.0208 16.4125 22.4125C16.0208 22.8042 15.55 23 15 23ZM15 17C14.45 17 13.9792 16.8042 13.5875 16.4125C13.1958 16.0208 13 15.55 13 15C13 14.45 13.1958 13.9792 13.5875 13.5875C13.9792 13.1958 14.45 13 15 13C15.55 13 16.0208 13.1958 16.4125 13.5875C16.8042 13.9792 17 14.45 17 15C17 15.55 16.8042 16.0208 16.4125 16.4125C16.0208 16.8042 15.55 17 15 17ZM15 11C14.45 11 13.9792 10.8042 13.5875 10.4125C13.1958 10.0208 13 9.55 13 9C13 8.45 13.1958 7.97917 13.5875 7.5875C13.9792 7.19583 14.45 7 15 7C15.55 7 16.0208 7.19583 16.4125 7.5875C16.8042 7.97917 17 8.45 17 9C17 9.55 16.8042 10.0208 16.4125 10.4125C16.0208 10.8042 15.55 11 15 11Z" fill="#737373"/>
</svg>
