<svg width="13" height="13" viewBox="0 0 13 13" fill="none" xmlns="http://www.w3.org/2000/svg">
<path d="M8.76769 9.37703L9.63092 8.5138L7.10894 5.99182V2.43735H5.89027V6.4996L8.76769 9.37703ZM6.4996 12.9992C5.60388 12.9992 4.76214 12.8299 3.97441 12.4914C3.18667 12.1529 2.49659 11.6874 1.90418 11.095C1.31177 10.5026 0.846303 9.81169 0.507782 9.02226C0.169261 8.23283 0 7.38935 0 6.49182C0 5.59429 0.169261 4.75058 0.507782 3.9607C0.846303 3.17081 1.31177 2.48249 1.90418 1.89572C2.49659 1.30895 3.18751 0.846303 3.97694 0.507782C4.76638 0.169261 5.60986 0 6.50739 0C7.40492 0 8.24869 0.170614 9.03868 0.511844C9.82856 0.853073 10.5157 1.31617 11.1001 1.90113C11.6844 2.4861 12.147 3.17397 12.4879 3.96476C12.8288 4.75554 12.9992 5.60049 12.9992 6.4996C12.9992 7.39533 12.8299 8.23706 12.4914 9.0248C12.1529 9.81254 11.6903 10.5026 11.1035 11.095C10.5167 11.6874 9.82766 12.1529 9.03631 12.4914C8.24496 12.8299 7.39939 12.9992 6.4996 12.9992ZM6.50773 11.7805C7.96867 11.7805 9.21274 11.2643 10.2399 10.2318C11.267 9.19931 11.7805 7.95254 11.7805 6.49148C11.7805 5.03054 11.267 3.78647 10.2399 2.75929C9.21274 1.73221 7.96867 1.21868 6.50773 1.21868C5.04667 1.21868 3.7999 1.73221 2.76741 2.75929C1.73492 3.78647 1.21868 5.03054 1.21868 6.49148C1.21868 7.95254 1.73492 9.19931 2.76741 10.2318C3.7999 11.2643 5.04667 11.7805 6.50773 11.7805Z" fill="#455168" fill-opacity="0.5"/>
</svg>
