<svg width="16" height="16" viewBox="0 0 16 16" fill="none" xmlns="http://www.w3.org/2000/svg">
<g clip-path="url(#clip0_2615_204839)">
<path d="M15.2267 4.1771L8.14667 2.15443C8.07457 2.13377 7.99892 2.12854 7.92467 2.1391L0.916 3.14043C0.662236 3.17775 0.430265 3.30483 0.262195 3.49858C0.0941255 3.69234 0.00109823 3.93994 0 4.19643V11.8044C0.00109823 12.0609 0.0941255 12.3085 0.262195 12.5023C0.430265 12.696 0.662236 12.8231 0.916 12.8604L7.92467 13.8604C7.9496 13.8643 7.97477 13.8666 8 13.8671C8.04962 13.8672 8.099 13.8602 8.14667 13.8464L15.2267 11.8238C15.4487 11.7595 15.644 11.6251 15.7834 11.4406C15.9228 11.2562 15.9988 11.0316 16 10.8004V5.20043C15.9988 4.96925 15.9228 4.74468 15.7834 4.56024C15.644 4.3758 15.4487 4.2414 15.2267 4.1771ZM5.86667 7.4671H4.8V3.6631L7.46667 3.28176V12.7191L4.8 12.3378V8.53376H5.86667C6.00812 8.53376 6.14377 8.47757 6.24379 8.37755C6.34381 8.27753 6.4 8.14188 6.4 8.00043C6.4 7.85898 6.34381 7.72333 6.24379 7.62331C6.14377 7.52329 6.00812 7.4671 5.86667 7.4671ZM1.06667 4.19643L3.73333 3.8151V7.4671H2.66667C2.52522 7.4671 2.38956 7.52329 2.28954 7.62331C2.18952 7.72333 2.13333 7.85898 2.13333 8.00043C2.13333 8.14188 2.18952 8.27753 2.28954 8.37755C2.38956 8.47757 2.52522 8.53376 2.66667 8.53376H3.73333V12.1858L1.06667 11.8044V4.19643ZM8.53333 12.6264V3.37443L14.9333 5.20043V10.8004L8.53333 12.6264Z" fill="black"/>
</g>
<defs>
<clipPath id="clip0_2615_204839">
<rect width="16" height="16" fill="white"/>
</clipPath>
</defs>
</svg>
